<?xml version="1.0" encoding="utf-8"?>
<!-- Generator: Adobe Illustrator 16.0.4, SVG Export Plug-In . SVG Version: 6.00 Build 0)  -->
<!DOCTYPE svg PUBLIC "-//W3C//DTD SVG 1.1//EN" "http://www.w3.org/Graphics/SVG/1.1/DTD/svg11.dtd">
<svg version="1.1" id="Capa_1" xmlns="http://www.w3.org/2000/svg" xmlns:xlink="http://www.w3.org/1999/xlink" x="0px" y="0px"
	 width="64px" height="64px" viewBox="0 0 64 64" enable-background="new 0 0 64 64" xml:space="preserve">
<g>
	<path d="M46.646,8.409h-3.875c-0.553,0-1-0.447-1-1v-1.75c0-2.757-2.242-5-5-5h-15.5c-2.757,0-5,2.243-5,5v1.75
		c0,0.553-0.448,1-1,1h-3.875c-2.761,0-5,2.238-5,5v4.75c0,0.553,0.448,1,1,1h43.25c0.554,0,1-0.447,1-1v-4.75
		C51.646,10.647,49.409,8.409,46.646,8.409z M37.771,7.409c0,0.553-0.446,1-1,1h-15.5c-0.552,0-1-0.447-1-1v-1.75
		c0-0.552,0.449-1,1-1h15.5c0.553,0,1,0.448,1,1V7.409z"/>
	<path d="M46.398,21.659h-34.75c-0.553,0-1,0.447-1,1v32c0,2.762,2.239,5,5,5h26.75c2.762,0,5-2.238,5-5v-32
		C47.398,22.106,46.951,21.659,46.398,21.659z M20.897,52.659c0,1.104-0.895,2-2,2c-1.104,0-2-0.896-2-2v-24.75c0-1.104,0.896-2,2-2
		c1.105,0,2,0.896,2,2V52.659z M31.022,52.659c0,1.104-0.895,2-2,2c-1.104,0-2-0.896-2-2v-24.75c0-1.104,0.896-2,2-2
		c1.105,0,2,0.896,2,2V52.659z M41.146,52.659c0,1.104-0.896,2-2,2c-1.104,0-2-0.896-2-2v-24.75c0-1.104,0.896-2,2-2
		c1.104,0,2,0.896,2,2V52.659z"/>
</g>
</svg>
